<?xml version="1.0"?><svg version="1.2" baseProfile="tiny-ps" viewBox="0 0 183 183" xmlns="http://www.w3.org/2000/svg" xmlns:xlink="http://www.w3.org/1999/xlink"><title>JohnHuveneers</title><g><g fill="#fefdfb" transform="matrix(.1 0 0 -.1 0 183)"><path d="M0 915V0h1830v1830H0V915z"/></g><g fill="#cce4f0" transform="matrix(.1 0 0 -.1 0 183)"><path d="M186 1624c-44-16-92-49-148-103l-38-35v-38c0-21 2-38 4-38 3 0 35 23 71 50l66 50h39l14-22c8-13 17-38 21-55l7-33h184l19 42c11 23 28 47 37 52l17 10 55-18 55-19 16 13 16 13-3 61-3 61-76-3-75-2-43 15-44 15-76-1h-76l-39-15zm545-76v-73l44-30c25-16 261-193 525-392l480-363h50v63l-1 62-139 105-140 105v324l-24 28-24 28h-240l-20-18-21-19-6-39c-4-21-9-39-12-39-4 0-104 74-224 165-121 91-226 165-234 165h-15l1-72zm-500-232-12-14 10-157 9-157-9-405-10-405 12-15 12-14 81 3 81 3-2 577c-1 318-4 582-8 588l-6 10H242l-11-14zm302 2-8-13 4-312 3-313h-51l-6-21-7-20 18-20 17-19-17-19-18-19 4-180 3-180 24-26 24-26h36l36 1 16 12c9 7 21 22 27 34l12 22v357l-12 12-11 11 12 15 13 15-4 23-3 23-28 3-28 3 5 252c3 139 6 269 7 290 0 22-2 54-6 73l-6 34h-48l-8-12zm192-1c-3-7-4-154-3-327l3-315 68-6 68-6 26-19c15-11 36-33 47-48l21-27 3-210 4-209h598v567l-22 20c-36 32-750 568-775 581-27 15-33 15-38-1z"/></g><g fill="#f8cdb8" transform="matrix(.1 0 0 -.1 0 183)"><path d="M186 1624c-44-16-92-49-148-103l-38-35v-38c0-21 2-38 4-38 3 0 35 23 71 50l66 50h39l14-22c8-13 17-38 21-55l7-33h184l19 42c11 23 28 47 37 52l17 10 55-18 55-19 16 13 16 13-3 61-3 61-76-3-75-2-43 15-44 15-76-1h-76l-39-15zm551-11c-4-3-7-35-7-69v-63l24-13c13-7 247-182 520-388l497-375 29-3 30-3v107l-145 108-145 108v335l-23 21-23 22h-222l-23-19-23-18-5-47-6-47-234 175c-129 97-235 176-236 176s-5-3-8-7zm-506-297-12-14 10-157 9-157-9-405-10-405 12-15 12-14 81 3 81 3-2 577c-1 318-4 582-8 588l-6 10H242l-11-14zm302 2-8-13 4-312 3-313h-51l-6-21-7-20 18-20 17-19-17-19-18-19 4-180 3-180 24-26 24-26h36l36 1 16 12c9 7 21 22 27 34l12 22v357l-12 12-11 11 12 15 13 15-4 23-3 23-28 3-28 3 5 252c3 139 6 269 7 290 0 22-2 54-6 73l-6 34h-48l-8-12zm192-1c-3-7-4-154-3-327l3-315 68-6 68-6 26-19c15-11 36-33 47-48l21-27 3-210 4-209h598v567l-22 20c-36 32-750 568-775 581-27 15-33 15-38-1z"/></g><g fill="#96c5e2" transform="matrix(.1 0 0 -.1 0 183)"><path d="M225 1631c-52-13-110-48-169-102l-56-51v-69l65 50c35 27 74 53 86 56l23 8 18-23c10-12 22-39 28-61l11-39h165l19 43 20 42 24 11 23 12 32-10c17-6 45-11 61-12l30-1 3 63 3 62-15 6-15 6-49-11-50-10-68 19-69 20-45-1c-25-1-58-4-75-8zm512-18c-4-3-7-35-7-69v-63l24-13c13-7 247-182 520-388l497-375 29-3 30-3v107l-145 108-145 108v335l-23 21-23 22h-222l-23-19-23-18-5-47-6-47-234 175c-129 97-235 176-236 176s-5-3-8-7zm-485-292-13-8-3-569-3-569 10-12 9-13h62c33 0 66 4 72 8l12 7-3 572c-2 315-6 577-10 582l-6 11h-57c-31 0-63-4-70-9zm283-23c-7-27-7-40 3-363l7-250 18-3 17-3v468l10 29 10 30-7 54-8 55-22 3-22 3-6-23zm197-300 3-323 65-5 66-5 27-18c15-9 35-29 44-44l18-27 5-211 5-210 293-3 292-2v569l-52 41c-203 158-745 560-756 560h-12l2-322zM480 649v-22l17-12 18-13-18-19-17-20V214l16-22c9-13 27-27 40-32l24-10 27 11c14 5 32 17 39 27l13 17 1 188v187h-20v40h20v50H480v-21z"/></g><g fill="#e68d6a" transform="matrix(.1 0 0 -.1 0 183)"><path d="M225 1631c-52-13-110-48-169-102l-56-51v-69l65 50c35 27 74 53 86 56l23 8 18-23c10-12 22-39 28-61l11-39h165l19 43 20 42 24 11 23 12 32-10c17-6 45-11 61-12l30-1 3 63 3 62-15 6-15 6-49-11-50-10-68 19-69 20-45-1c-25-1-58-4-75-8zm27-310-13-8-3-569-3-569 10-12 9-13h62c33 0 66 4 72 8l12 7-3 572c-2 315-6 577-10 582l-6 11h-57c-31 0-63-4-70-9zm283-23c-7-27-7-40 3-363l7-250 18-3 17-3v468l10 29 10 30-7 54-8 55-22 3-22 3-6-23zm197-300 3-323 65-5 66-5 27-18c15-9 35-29 44-44l18-27 5-211 5-210 293-3 292-2v569l-52 41c-203 158-745 560-756 560h-12l2-322zM480 649v-22l17-12 18-13-18-19-17-20V214l16-22c9-13 27-27 40-32l24-10 27 11c14 5 32 17 39 27l13 17 1 188v187h-20v40h20v50H480v-21z"/></g><g fill="#ed5c27" transform="matrix(.1 0 0 -.1 0 183)"><path d="m174 1606-51-24-63-58-62-59 3-22 4-22 64 50 65 50 30-3 30-3 13-25c7-14 18-37 23-52l10-28h77l78 1 20 42 20 42 28 10 28 9 32-13c18-7 42-15 55-18l22-5v135l-69-7-68-7-44 15-44 16H225l-51-24zm75-290c-2-2-4-262-4-578V165l71-3 72-3 5 14c3 8 1 199-5 426l-10 412 10 142 11 141-11 13-10 13h-63c-34 0-64-2-66-4zm297-5c-7-11-7-70 0-374l5-248 12 4 12 4 6 279c3 153 3 294 1 312l-5 32h-13c-7 0-15-4-18-9zm194-315V680h117l33-22c18-13 43-36 54-51l21-28 3-210 3-209h579v555l-392 295c-216 162-398 296-405 298l-13 3V996zM490 655c0-8 6-24 12-35l13-20-13-20-12-20V201l26-20 27-21h43l22 20 22 21v368l-10 6c-5 3-10 15-10 26v19h20v50H490v-15z"/></g></g></svg>